<svg width="266" height="245" viewBox="0 0 266 245" fill="none" xmlns="http://www.w3.org/2000/svg">
<path d="M36.5137 55.4375H44.248C52.0469 55.4375 62.4883 61.2383 75.5723 72.8398L79.4395 72.4531H80.9863C107.799 72.4531 131.389 89.2109 151.756 122.727C159.232 138.324 162.971 152.246 162.971 164.492V166.039C160.586 170.164 158.008 172.227 155.236 172.227H154.85C151.498 172.227 148.533 169.777 145.955 164.879C145.955 151.924 139.252 135.682 125.846 116.152C111.924 99.1367 97.873 90.6289 83.6934 90.6289H77.5059C75.7012 90.6289 74.7988 91.918 74.7988 94.4961V95.6562C74.7988 98.9434 79.9551 101.779 90.2676 104.164C104.189 110.416 113.986 119.826 119.658 132.395L121.205 141.289V144.77C121.205 155.211 115.275 162.816 103.416 167.586C100.709 168.359 98.002 168.746 95.2949 168.746H94.9082C87.1094 168.746 78.9883 165.781 70.5449 159.852H70.1582C63.2617 168.617 54.4961 173 43.8613 173C31.0352 173 22.3984 165.523 17.9512 150.57L17.1777 143.996V141.289C17.1777 127.303 24.9121 111.447 40.3809 93.7227C48.502 85.6016 54.1738 80.832 57.3965 79.4141C52.627 75.2891 47.4707 73.2266 41.9277 73.2266H41.541C30.7773 73.2266 22.0117 81.0898 15.2441 96.8164C13.1816 98.6211 11.248 99.5234 9.44336 99.5234H8.2832C3.12695 98.4922 0.548828 95.0117 0.548828 89.082C2.48242 81.0898 7.89648 72.4531 16.791 63.1719C24.2031 58.0156 30.7773 55.4375 36.5137 55.4375ZM32.6465 138.969C32.6465 149.023 36.3848 154.953 43.8613 156.758H46.9551C54.6895 156.758 58.5566 146.445 58.5566 125.82C58.5566 122.469 60.877 120.406 65.5176 119.633H67.0645C72.9941 119.633 75.959 122.34 75.959 127.754C77.6992 137.357 80.4062 144.318 84.0801 148.637C87.4961 151.215 90.7188 152.504 93.748 152.504L96.0684 152.891C101.225 152.891 103.803 150.055 103.803 144.383C103.803 135.359 99.6777 127.238 91.4277 120.02C89.752 118.73 82.2754 116.152 68.998 112.285C64.873 109.707 62.0371 106.613 60.4902 103.004C60.0391 99.6523 59.6523 97.9766 59.3301 97.9766C48.4375 103.262 40.0586 113.574 34.1934 128.914L32.6465 138.969ZM148.179 0.233398H160.94C188.462 0.233398 214.372 9.64355 238.671 28.4639C249.95 40.1943 256.396 48.8311 258.007 54.374C263.163 67.1357 265.741 77.0615 265.741 84.1514V92.6592C265.741 108.386 261.358 124.241 252.593 140.226C238.993 162.397 221.462 173.483 199.999 173.483C181.694 173.483 168.675 163.558 160.94 143.706C159.651 138.228 159.007 133.071 159.007 128.237C159.007 111.608 165.065 97.2998 177.183 85.3115C185.562 77.835 194.843 74.0967 205.026 74.0967H206.96C218.819 74.0967 227.069 80.9287 231.71 94.5928L232.483 102.327C232.483 118.183 225.136 130.944 210.44 140.612C204.962 143.19 198.903 144.479 192.265 144.479H191.878C185.69 144.479 182.597 142.675 182.597 139.065C183.628 133.909 185.433 131.331 188.011 131.331C205.026 125.724 213.534 116.571 213.534 103.874C213.534 95.3662 210.698 91.1123 205.026 91.1123C199.032 91.1123 192.458 95.7529 185.304 105.034C179.116 115.024 176.022 123.532 176.022 130.558C176.022 137.647 178.987 144.995 184.917 152.601C189.558 155.437 194.069 156.854 198.452 156.854H199.226C215.339 156.854 229.39 144.351 241.378 119.343C245.761 108.063 247.952 98.1377 247.952 89.5654V84.1514C247.952 57.2744 230.421 37.165 195.358 23.8232C182.274 19.4404 167.321 17.249 150.499 17.249C146.374 14.4131 144.312 11.4482 144.312 8.35449C144.312 5.84082 145.601 3.13379 148.179 0.233398ZM237.994 153.567H241.088C246.76 155.372 249.596 158.337 249.596 162.462C254.236 179.8 256.557 195.526 256.557 209.642V221.243C256.557 234.392 253.721 241.997 248.049 244.06L245.342 244.446C242.893 244.446 234.256 241.481 219.432 235.552C208.088 231.942 196.873 230.138 185.787 230.138H163.744C156.783 230.138 143.119 231.685 122.752 234.778C118.111 232.845 115.791 229.364 115.791 224.337C116.758 218.665 119.207 215.829 123.139 215.829C139.961 211.446 157.492 209.255 175.732 209.255C195.004 209.255 212.793 212.478 229.1 218.923L231.033 219.31C235.674 219.31 237.994 215.313 237.994 207.321C237.994 197.782 234.9 181.927 228.713 159.755C233.418 155.63 236.512 153.567 237.994 153.567Z" fill="#E6E6E6"/>
</svg>
