<svg width="342" height="355" viewBox="0 0 342 355" fill="none" xmlns="http://www.w3.org/2000/svg">
<g clip-path="url(#clip0_33_108)">
<path d="M58.3523 243.701C80.988 173.678 106.062 105.247 132.959 38.0486C135.021 32.8648 128.909 31.5427 126.275 31.8783C121.592 32.4985 117.21 36.1344 115.12 41.1841C87.4897 107.975 62.6683 176.843 39.9427 246.955C38.1577 252.431 43.8276 253.705 46.824 253.294C51.2857 252.65 56.6431 249.022 58.3523 243.701Z" fill="black"/>
<path d="M119.803 272.594C137.588 249.883 155.373 227.172 173.093 204.405C175.188 201.733 177.312 196.326 172.779 194.537C168.246 192.748 162.663 196.073 159.825 199.599C141.923 222.264 124.072 244.918 106.183 267.65C104.049 270.401 101.85 275.963 106.501 277.798C111.151 279.632 116.889 276.275 119.751 272.605L119.803 272.594Z" fill="black"/>
<path d="M183.648 327.923C229.021 296.42 274.474 265.04 319.806 233.336C322.317 231.626 328.261 227.177 326.089 222.171C324.024 217.422 317.027 219.921 314.709 221.52C269.243 252.833 223.869 284.336 178.444 315.849C175.895 317.637 169.796 322.118 172.047 327.247C174.126 332.063 181.279 329.533 183.686 327.845L183.648 327.923Z" fill="black"/>
</g>
<defs>
<clipPath id="clip0_33_108">
<rect width="286.126" height="302.418" fill="white" transform="translate(0 58.0335) rotate(-11.7022)"/>
</clipPath>
</defs>
</svg>
