<svg width="382" height="376" viewBox="0 0 382 376" fill="none" xmlns="http://www.w3.org/2000/svg">
<g clip-path="url(#clip0_33_112)">
<path d="M213.47 312.307L156.012 308.611L128.211 306.805C118.42 306.165 108.439 304.889 98.6487 305.081C95.1042 305.13 95.5493 308.555 96.8082 310.991C98.449 314.173 101.958 317.385 105.552 317.876C115.371 319.245 125.447 319.328 135.321 319.963L163.123 321.77L220.599 325.499C224.314 325.747 223.646 321.704 222.462 319.401C220.878 316.318 217.1 312.559 213.437 312.325L213.47 312.307Z" fill="black"/>
<path d="M229.107 233.546C180.783 189.304 132.834 144.587 84.0062 100.895C82.3151 99.3625 78.1234 95.7076 75.776 98.0086C73.5586 100.236 76.9691 104.861 78.5387 106.332C126.358 151.123 175.061 194.973 223.417 239.196C225.197 240.81 229.567 244.626 232.006 242.185C234.321 239.902 230.792 234.994 229.12 233.494L229.107 233.546Z" fill="black"/>
<path d="M296.321 209.872L298.745 152.566L299.944 124.381C300.359 114.685 301.253 104.848 300.978 95.1508C300.86 91.8461 297.611 88.4861 295.071 86.8239C293.757 85.9525 288.889 83.6028 288.513 86.795C287.357 96.475 287.409 106.386 287.013 116.115L285.814 144.301L283.33 202.56C283.111 207.765 296 217.544 296.339 209.905L296.321 209.872Z" fill="black"/>
</g>
<defs>
<clipPath id="clip0_33_112">
<rect width="270" height="285" fill="white" transform="translate(133.674 375.688) rotate(-119.676)"/>
</clipPath>
</defs>
</svg>
