<svg width="191" height="193" viewBox="0 0 191 193" fill="none" xmlns="http://www.w3.org/2000/svg">
<path d="M174.59 21.33C179.05 21.33 182.666 17.6744 182.666 13.165C182.666 8.6556 179.05 5 174.59 5C170.13 5 166.514 8.6556 166.514 13.165C166.514 17.6744 170.13 21.33 174.59 21.33Z" stroke="black" stroke-width="8.61085" stroke-linecap="round" stroke-linejoin="round"/>
<path d="M62.6186 13.6974L50.7505 25.6967" stroke="black" stroke-width="8.61085" stroke-linecap="round" stroke-linejoin="round"/>
<path d="M50.7505 13.6974L62.6186 25.6967" stroke="black" stroke-width="8.61085" stroke-linecap="round" stroke-linejoin="round"/>
<path d="M43.7635 40.926C45.5475 40.926 46.9938 39.4638 46.9938 37.66C46.9938 35.8563 45.5475 34.394 43.7635 34.394C41.9795 34.394 40.5332 35.8563 40.5332 37.66C40.5332 39.4638 41.9795 40.926 43.7635 40.926Z" fill="black"/>
<path d="M17.1329 102.98C24.1523 139.752 45.6467 168.682 72.9394 178.098H59.9148V187.896H124.521V178.098H111.496C138.789 168.682 160.273 139.752 167.302 102.98" stroke="black" stroke-width="8.61085" stroke-linecap="round" stroke-linejoin="round"/>
<path d="M68.4332 54.0259C63.6964 54.3163 59.2296 56.3536 55.8794 59.7516C52.5292 63.1497 50.5284 67.6724 50.2563 72.4625" stroke="black" stroke-width="8.61085" stroke-linecap="round" stroke-linejoin="round"/>
<path d="M117.908 52.8795C117.45 48.7743 115.973 44.8528 113.613 41.4799C111.254 38.107 108.089 35.3923 104.413 33.5884C100.737 31.7844 96.669 30.9498 92.5883 31.1621C88.5075 31.3745 84.5462 32.6269 81.0728 34.803C77.5995 36.979 74.7269 40.0078 72.7223 43.6078C70.7177 47.2078 69.6462 51.2619 69.6075 55.3931C69.5689 59.5242 70.5643 63.5981 72.5012 67.2358C74.4381 70.8734 77.2535 73.9567 80.6855 76.1988" stroke="black" stroke-width="8.61085" stroke-linecap="round" stroke-linejoin="round"/>
<path d="M137.442 73.586C137.442 68.3888 135.4 63.4045 131.765 59.7295C128.13 56.0546 123.2 53.99 118.06 53.99C112.92 53.99 107.99 56.0546 104.355 59.7295C100.72 63.4045 98.6782 68.3888 98.6782 73.586" stroke="black" stroke-width="8.61085" stroke-linecap="round" stroke-linejoin="round"/>
<path d="M69.5862 92.2806C69.3631 87.2401 67.2257 82.4809 63.619 78.9939C60.0123 75.5069 55.2142 73.5607 50.2239 73.5607C45.2336 73.5607 40.4356 75.5069 36.8288 78.9939C33.2221 82.4809 31.0847 87.2401 30.8616 92.2806" stroke="black" stroke-width="8.61085" stroke-linecap="round" stroke-linejoin="round"/>
<path d="M111.58 92.2871C111.357 87.2467 109.219 82.4875 105.613 79.0004C102.006 75.5134 97.2079 73.5673 92.2176 73.5673C87.2272 73.5673 82.4292 75.5134 78.8225 79.0004C75.2158 82.4875 73.0783 87.2467 72.8552 92.2871" stroke="black" stroke-width="8.61085" stroke-linecap="round" stroke-linejoin="round"/>
<path d="M153.567 92.1728C153.313 87.1457 151.156 82.4101 147.542 78.9477C143.929 75.4853 139.136 73.5617 134.157 73.5755C129.179 73.5894 124.396 75.5397 120.802 79.0222C117.207 82.5046 115.075 87.2522 114.849 92.2806" stroke="black" stroke-width="8.61085" stroke-linecap="round" stroke-linejoin="round"/>
<path d="M78.5568 123.461L86.9782 124.385L92.2855 117.71L97.5929 124.385L106.014 123.461L105.097 131.976L111.7 137.342L105.097 142.708L106.014 151.222L97.5929 150.295L92.2855 156.97L86.9782 150.295L78.5568 151.222L79.471 142.708L72.8683 137.342L79.471 131.976L78.5568 123.461Z" stroke="black" stroke-width="8.61085" stroke-linecap="round" stroke-linejoin="round"/>
<path d="M36.5922 102.98H16.306C15.0209 102.98 13.7885 102.464 12.8798 101.545C11.9711 100.626 11.4606 99.3803 11.4606 98.081C11.4606 96.7817 11.9711 95.5356 12.8798 94.6169C13.7885 93.6982 15.0209 93.182 16.306 93.182H168.129C169.415 93.182 170.647 93.6982 171.556 94.6169C172.464 95.5356 172.975 96.7817 172.975 98.081C172.975 99.3803 172.464 100.626 171.556 101.545C170.647 102.464 169.415 102.98 168.129 102.98H59.9149" stroke="black" stroke-width="8.61085" stroke-linecap="round" stroke-linejoin="round"/>
<path d="M72.8359 178.098H88.9874" stroke="black" stroke-width="8.61085" stroke-linecap="round" stroke-linejoin="round"/>
<path d="M5 187.896H185.896C185.905 182.794 183.946 177.889 180.434 174.224C176.922 170.56 172.135 168.425 167.091 168.273C162.047 168.121 157.143 169.965 153.422 173.411C149.701 176.858 147.456 181.636 147.165 186.73" stroke="black" stroke-width="8.61085" stroke-linecap="round" stroke-linejoin="round"/>
</svg>
