<svg width="198" height="178" viewBox="0 0 198 178" fill="none" xmlns="http://www.w3.org/2000/svg">
<path d="M141.457 178H56.5461C51.4971 178 47.3901 174.292 47.3901 169.733V8.2618C47.3901 3.7065 51.4971 0 56.5461 0H141.459C146.509 0 150.616 3.7065 150.616 8.2618V169.733C150.613 174.292 146.506 178 141.457 178ZM56.5461 5.58418C54.9095 5.58418 53.5776 6.78478 53.5776 8.2618V169.733C53.5776 171.214 54.9095 172.416 56.5461 172.416H141.457C143.095 172.416 144.427 171.214 144.427 169.733L144.429 8.2618C144.429 6.78478 143.097 5.58418 141.459 5.58418H56.5461Z" fill="#282D33"/>
<path d="M51.2373 144.211H146.763V149.796H51.2373V144.211Z" fill="#282D33"/>
<path d="M51.2373 25.0437H146.763V30.6279H51.2373V25.0437Z" fill="#282D33"/>
<path d="M82.792 12.2238H115.21V17.8079H82.792V12.2238Z" fill="#282D33"/>
<path d="M95.0417 158.138H102.962V163.723H95.0417V158.138Z" fill="#282D33"/>
<path d="M178.203 86.7781H198V92.3623H178.203V86.7781Z" fill="#282D33"/>
<path d="M187.875 51.5446L190.491 56.605L172.55 64.1596L169.934 59.0992L187.875 51.5446Z" fill="#282D33"/>
<path d="M172.545 114.98L190.487 122.53L187.873 127.59L169.931 120.04L172.545 114.98Z" fill="#282D33"/>
<path d="M0 86.7781H19.7969V92.3623H0V86.7781Z" fill="#282D33"/>
<path d="M25.4448 114.974L28.0597 120.035L10.1177 127.586L7.50288 122.525L25.4448 114.974Z" fill="#282D33"/>
<path d="M10.1206 51.5486L28.0625 59.0991L25.4477 64.16L7.50577 56.6096L10.1206 51.5486Z" fill="#282D33"/>
<path d="M99.0014 136.081L96.4197 132.553C95.0955 130.741 63.9863 88.0445 63.9863 71.4832C63.9863 54.0619 79.6933 39.8879 99.0014 39.8879C118.305 39.8879 134.01 54.0619 134.01 71.4832C134.01 88.0431 102.909 130.743 101.583 132.553L99.0014 136.081ZM99.0014 45.4707C83.1057 45.4707 70.1738 57.1388 70.1738 71.4818C70.1738 82.7688 89.0612 111.818 98.9998 125.879C108.937 111.815 127.821 82.7632 127.821 71.4818C127.823 57.1402 114.892 45.4707 99.0014 45.4707Z" fill="#282D33"/>
<path d="M99.0013 85.7982C90.2553 85.7982 83.1396 79.3764 83.1396 71.4831C83.1396 63.5899 90.2553 57.1681 99.0013 57.1681C107.747 57.1681 114.863 63.5899 114.863 71.4831C114.863 79.3764 107.747 85.7982 99.0013 85.7982ZM99.0013 62.7523C93.6677 62.7523 89.3271 66.6696 89.3271 71.4831C89.3271 76.2967 93.6677 80.214 99.0013 80.214C104.335 80.214 108.675 76.2967 108.675 71.4831C108.675 66.6696 104.335 62.7523 99.0013 62.7523Z" fill="#282D33"/>
</svg>
