<svg width="217" height="130" viewBox="0 0 217 130" fill="none" xmlns="http://www.w3.org/2000/svg">
<path d="M111.972 43.2208C111.032 43.2496 110.128 43.6386 109.462 44.3157L90.3805 63.2608L78.6263 51.5912C75.3352 48.1768 70.0187 53.4497 73.4545 56.7201L87.7982 70.9685C89.2232 72.3876 91.5378 72.3876 92.97 70.9685L114.634 49.4518C117.021 47.1467 115.263 43.2208 111.979 43.2208H111.972ZM3.61667 72.0347H25.3167C27.3203 72.0347 28.9333 73.641 28.9333 75.6364C28.9333 77.6317 27.3203 79.2381 25.3167 79.2381H3.61667C1.61303 79.2381 0 77.6317 0 75.6364C0 73.641 1.61303 72.0347 3.61667 72.0347ZM3.61667 43.2208H25.3167C27.3203 43.2208 28.9333 44.8272 28.9333 46.8225C28.9333 48.8179 27.3203 50.4243 25.3167 50.4243H3.61667C1.61303 50.4243 0 48.8179 0 46.8225C0 44.8272 1.61303 43.2208 3.61667 43.2208ZM3.61667 14.4069H25.3167C27.3203 14.4069 28.9333 16.0133 28.9333 18.0087C28.9333 20.004 27.3203 21.6104 25.3167 21.6104H3.61667C1.61303 21.6104 0 20.004 0 18.0087C0 16.0133 1.61303 14.4069 3.61667 14.4069ZM177.217 93.645C167.271 93.645 159.133 101.749 159.133 111.654C159.133 121.558 167.271 129.662 177.217 129.662C187.162 129.662 195.3 121.558 195.3 111.654C195.3 101.749 187.162 93.645 177.217 93.645ZM177.217 100.849C183.249 100.849 188.067 105.646 188.067 111.654C188.067 117.661 183.249 122.459 177.217 122.459C171.184 122.459 166.367 117.661 166.367 111.654C166.367 105.646 171.184 100.849 177.217 100.849ZM83.1833 93.645C73.2375 93.645 65.1 101.749 65.1 111.654C65.1 121.558 73.2375 129.662 83.1833 129.662C93.1292 129.662 101.267 121.558 101.267 111.654C101.267 101.749 93.1292 93.645 83.1833 93.645ZM83.1833 100.849C89.2159 100.849 94.0333 105.646 94.0333 111.654C94.0333 117.661 89.2159 122.459 83.1833 122.459C77.1507 122.459 72.3333 117.661 72.3333 111.654C72.3333 105.646 77.1507 100.849 83.1833 100.849ZM47.0167 0C41.0709 0 36.1667 4.88395 36.1667 10.8052V90.0433C36.1667 95.9646 41.0709 100.849 47.0167 100.849H61.4833C66.3731 100.921 66.3731 93.573 61.4833 93.645H47.0167C44.9479 93.645 43.4 92.1035 43.4 90.0433V10.8052C43.4 8.74501 44.9479 7.20346 47.0167 7.20346H141.05C143.119 7.20346 144.667 8.74501 144.667 10.8052V93.645H104.883C100.109 93.645 100.196 100.921 104.883 100.849H155.517C160.291 100.849 160.247 93.645 155.517 93.645H151.9V28.8139H182.475L209.767 71.2855V90.0433C209.767 92.1035 208.219 93.645 206.15 93.645H198.917C194.186 93.645 194.186 100.849 198.917 100.849H206.15C212.096 100.849 217 95.9646 217 90.0433V70.2338C217 69.5495 216.805 68.8651 216.436 68.2888L187.502 23.2672C186.837 22.2371 185.694 21.6104 184.45 21.6104H151.9V10.8052C151.9 4.88395 146.996 0 141.05 0H47.0167Z" fill="black"/>
</svg>
