<svg width="52" height="52" viewBox="0 0 52 52" fill="none" xmlns="http://www.w3.org/2000/svg">
<path d="M17.3189 43.3333C20.4884 43.4405 23.6469 42.9044 26.608 41.7567C29.569 40.6089 32.2724 38.8728 34.5583 36.6509C36.8443 34.4291 38.6664 31.7666 39.917 28.8208C41.1677 25.8749 41.8215 22.7056 41.8398 19.5C43.2923 17.6831 44.3708 15.591 45.0121 13.3467C45.0599 13.1694 45.0561 12.9818 45.0009 12.8067C44.9458 12.6315 44.8418 12.4762 44.7013 12.3595C44.5609 12.2427 44.3901 12.1695 44.2094 12.1486C44.0288 12.1277 43.846 12.16 43.6831 12.2417C42.9232 12.6114 42.0677 12.7309 41.2371 12.5832C40.4065 12.4355 39.6427 12.0281 39.0533 11.4183C38.3009 10.5854 37.3907 9.91366 36.3767 9.44284C35.3627 8.97202 34.2655 8.71172 33.1502 8.67737C32.0348 8.64302 30.924 8.83532 29.8836 9.24288C28.8431 9.65043 27.8942 10.2649 27.0929 11.05C25.9959 12.1239 25.1924 13.4665 24.7605 14.9471C24.3286 16.4278 24.2829 17.9962 24.628 19.5C17.4475 19.9333 12.5176 16.4883 8.57366 11.765C8.45518 11.6294 8.30019 11.5316 8.12762 11.4835C7.95505 11.4354 7.77237 11.4392 7.60188 11.4944C7.4314 11.5495 7.28049 11.6536 7.16758 11.794C7.05468 11.9344 6.98466 12.1051 6.96609 12.285C6.21475 16.4979 6.75674 20.8424 8.51926 24.7348C10.2818 28.6273 13.1804 31.8814 16.8259 34.06C14.3816 36.8936 10.949 38.6634 7.24473 39C7.04628 39.0333 6.86308 39.1284 6.72077 39.2722C6.57847 39.4159 6.48418 39.601 6.45111 39.8016C6.41804 40.0022 6.44784 40.2082 6.53634 40.3908C6.62483 40.5734 6.7676 40.7235 6.94465 40.82C10.1673 42.448 13.7163 43.3078 17.3189 43.3333Z" fill="#E6E6E6"/>
</svg>
