<svg width="56" height="54" viewBox="0 0 56 54" fill="none" xmlns="http://www.w3.org/2000/svg">
<path d="M4.67587 49.5L7.83054 38.322C5.75186 34.8859 4.65976 30.978 4.66654 27C4.66654 14.5733 15.1129 4.5 27.9999 4.5C40.8869 4.5 51.3332 14.5733 51.3332 27C51.3332 39.4268 40.8869 49.5 27.9999 49.5C23.8764 49.5064 19.8254 48.4541 16.2632 46.4513L4.67587 49.5ZM19.5789 16.443C19.2775 16.461 18.9831 16.5376 18.7132 16.668C18.4601 16.8062 18.229 16.979 18.0272 17.181C17.7472 17.4353 17.5885 17.6558 17.4182 17.8695C16.5558 18.9517 16.092 20.2802 16.0999 21.645C16.1045 22.7475 16.4032 23.8207 16.8699 24.8242C17.8242 26.8538 19.3945 29.0025 21.4689 30.9937C21.9682 31.473 22.4559 31.9545 22.9809 32.4023C25.5554 34.588 28.6235 36.1643 31.9409 37.0058L33.2685 37.2015C33.7002 37.224 34.1319 37.1925 34.5659 37.1722C35.2454 37.1384 35.909 36.961 36.5095 36.6525C36.8969 36.4545 37.0789 36.3555 37.4032 36.1575C37.4032 36.1575 37.5035 36.0945 37.6949 35.955C38.0099 35.73 38.2035 35.5703 38.4649 35.307C38.6585 35.1135 38.8265 34.8863 38.9549 34.6275C39.1369 34.2607 39.3189 33.561 39.3935 32.9782C39.4495 32.5327 39.4332 32.2898 39.4262 32.139C39.4169 31.8983 39.2092 31.6485 38.9829 31.5427L37.6249 30.9555C37.6249 30.9555 35.5949 30.1028 34.3559 29.5583C34.2252 29.5033 34.0852 29.4721 33.9429 29.466C33.7832 29.4502 33.6219 29.4675 33.4698 29.5168C33.3177 29.5661 33.1782 29.6462 33.0609 29.7517V29.7472C33.0492 29.7472 32.8929 29.8755 31.2059 31.8465C31.109 31.972 30.9757 32.0668 30.8227 32.1189C30.6698 32.171 30.5043 32.178 30.3472 32.139C30.1952 32.0998 30.0462 32.0502 29.9015 31.9905C29.6122 31.8735 29.5119 31.8285 29.3135 31.7453L29.3019 31.7408C27.967 31.1788 26.7311 30.4197 25.6385 29.4908C25.3445 29.2432 25.0715 28.9732 24.7915 28.7122C23.8736 27.8645 23.0735 26.9055 22.4115 25.8592L22.2739 25.6455C22.175 25.5019 22.095 25.3469 22.0359 25.1842C21.9472 24.8535 22.1782 24.588 22.1782 24.588C22.1782 24.588 22.7452 23.9895 23.0089 23.6655C23.2284 23.3962 23.4332 23.1161 23.6225 22.8263C23.8979 22.3988 23.9842 21.96 23.8395 21.6203C23.1862 20.0813 22.5095 18.549 21.8142 17.028C21.6765 16.7265 21.2682 16.5105 20.8972 16.4677C20.7712 16.4542 20.6452 16.4408 20.5192 16.4318C20.2058 16.4167 19.8918 16.422 19.5789 16.443Z" fill="#E6E6E6"/>
</svg>
