<svg width="62" height="61" viewBox="0 0 62 61" fill="none" xmlns="http://www.w3.org/2000/svg">
<path d="M43.8969 8.94553C43.8969 8.60976 43.7611 8.28775 43.5193 8.05033C43.2775 7.8129 42.9495 7.67952 42.6076 7.67952H36.1607C32.9144 7.52074 29.736 8.63002 27.3201 10.765C24.9041 12.9 23.447 15.887 23.267 19.0736V25.91H16.8201C16.4782 25.91 16.1502 26.0434 15.9084 26.2808C15.6666 26.5183 15.5308 26.8403 15.5308 27.176V33.7593C15.5308 34.0951 15.6666 34.4171 15.9084 34.6545C16.1502 34.8919 16.4782 35.0253 16.8201 35.0253H23.267V51.9898C23.267 52.3256 23.4028 52.6476 23.6446 52.885C23.8864 53.1224 24.2144 53.2558 24.5564 53.2558H32.2926C32.6346 53.2558 32.9625 53.1224 33.2043 52.885C33.4461 52.6476 33.582 52.3256 33.582 51.9898V35.0253H40.3383C40.625 35.0293 40.9049 34.9394 41.1338 34.7697C41.3626 34.6001 41.5273 34.3603 41.6019 34.0884L43.4586 27.5052C43.5099 27.3181 43.5168 27.122 43.4787 26.9319C43.4407 26.7418 43.3587 26.5629 43.2391 26.4088C43.1196 26.2547 42.9656 26.1296 42.789 26.0431C42.6125 25.9566 42.4181 25.9111 42.2208 25.91H33.582V19.0736C33.6461 18.4469 33.9459 17.8661 34.4227 17.4447C34.8995 17.0234 35.5192 16.7916 36.1607 16.7948H42.6076C42.9495 16.7948 43.2775 16.6614 43.5193 16.424C43.7611 16.1866 43.8969 15.8645 43.8969 15.5288V8.94553Z" fill="#E6E6E6"/>
</svg>
